<?xml version="1.0" encoding="UTF-8"?>
<svg version="1.1" xmlns="http://www.w3.org/2000/svg" width="230" height="160">
<path d="M0 0 C31.35 0 62.7 0 95 0 C95 1.65 95 3.3 95 5 C99.95 5 104.9 5 110 5 C110 8.3 110 11.6 110 15 C114.95 15 119.9 15 125 15 C125 13.35 125 11.7 125 10 C129.95 10 134.9 10 140 10 C140 11.65 140 13.3 140 15 C141.65 15 143.3 15 145 15 C145 16.65 145 18.3 145 20 C146.65 20 148.3 20 150 20 C150 26.6 150 33.2 150 40 C148.35 40 146.7 40 145 40 C145 41.65 145 43.3 145 45 C141.7 45 138.4 45 135 45 C135 46.65 135 48.3 135 50 C136.65 50 138.3 50 140 50 C140 51.65 140 53.3 140 55 C141.65 55 143.3 55 145 55 C145 63.25 145 71.5 145 80 C143.35 80 141.7 80 140 80 C140 81.65 140 83.3 140 85 C136.7 85 133.4 85 130 85 C130 93.25 130 101.5 130 110 C126.7 110 123.4 110 120 110 C120 108.35 120 106.7 120 105 C118.35 105 116.7 105 115 105 C115 113.25 115 121.5 115 130 C113.35 130 111.7 130 110 130 C110 131.65 110 133.3 110 135 C108.35 135 106.7 135 105 135 C105 136.65 105 138.3 105 140 C100.05 140 95.1 140 90 140 C90 138.35 90 136.7 90 135 C88.35 135 86.7 135 85 135 C85 133.35 85 131.7 85 130 C83.35 130 81.7 130 80 130 C80 128.35 80 126.7 80 125 C78.35 125 76.7 125 75 125 C75 120.05 75 115.1 75 110 C73.35 110 71.7 110 70 110 C70 103.4 70 96.8 70 90 C53.5 90 37 90 20 90 C20 98.25 20 106.5 20 115 C18.35 115 16.7 115 15 115 C15 118.3 15 121.6 15 125 C13.35 125 11.7 125 10 125 C10 126.65 10 128.3 10 130 C8.35 130 6.7 130 5 130 C5 131.65 5 133.3 5 135 C3.35 135 1.7 135 0 135 C0 136.65 0 138.3 0 140 C-4.95 140 -9.9 140 -15 140 C-15 138.35 -15 136.7 -15 135 C-16.65 135 -18.3 135 -20 135 C-20 133.35 -20 131.7 -20 130 C-21.65 130 -23.3 130 -25 130 C-25 123.4 -25 116.8 -25 110 C-26.65 110 -28.3 110 -30 110 C-30 111.65 -30 113.3 -30 115 C-33.3 115 -36.6 115 -40 115 C-40 105.1 -40 95.2 -40 85 C-38.35 85 -36.7 85 -35 85 C-35 83.35 -35 81.7 -35 80 C-33.35 80 -31.7 80 -30 80 C-30 75.05 -30 70.1 -30 65 C-33.3 65 -36.6 65 -40 65 C-40 69.95 -40 74.9 -40 80 C-41.65 80 -43.3 80 -45 80 C-45 83.3 -45 86.6 -45 90 C-48.3 90 -51.6 90 -55 90 C-55 88.35 -55 86.7 -55 85 C-56.65 85 -58.3 85 -60 85 C-60 75.1 -60 65.2 -60 55 C-58.35 55 -56.7 55 -55 55 C-55 53.35 -55 51.7 -55 50 C-53.35 50 -51.7 50 -50 50 C-50 48.35 -50 46.7 -50 45 C-48.35 45 -46.7 45 -45 45 C-45 43.35 -45 41.7 -45 40 C-40.05 40 -35.1 40 -30 40 C-30 33.4 -30 26.8 -30 20 C-26.7 20 -23.4 20 -20 20 C-20 15.05 -20 10.1 -20 5 C-13.4 5 -6.8 5 0 5 C0 3.35 0 1.7 0 0 Z M120 40 C120 41.65 120 43.3 120 45 C124.95 45 129.9 45 135 45 C135 43.35 135 41.7 135 40 C130.05 40 125.1 40 120 40 Z M120 65 C120 69.95 120 74.9 120 80 C121.65 80 123.3 80 125 80 C125 75.05 125 70.1 125 65 C123.35 65 121.7 65 120 65 Z M125 80 C125 81.65 125 83.3 125 85 C126.65 85 128.3 85 130 85 C130 83.35 130 81.7 130 80 C128.35 80 126.7 80 125 80 Z M-15 85 C-15 86.65 -15 88.3 -15 90 C-16.65 90 -18.3 90 -20 90 C-20 91.65 -20 93.3 -20 95 C-21.65 95 -23.3 95 -25 95 C-25 99.95 -25 104.9 -25 110 C-23.35 110 -21.7 110 -20 110 C-20 106.7 -20 103.4 -20 100 C-18.35 100 -16.7 100 -15 100 C-15 98.35 -15 96.7 -15 95 C-13.35 95 -11.7 95 -10 95 C-10 93.35 -10 91.7 -10 90 C-8.35 90 -6.7 90 -5 90 C-5 88.35 -5 86.7 -5 85 C-8.3 85 -11.6 85 -15 85 Z M95 85 C95 86.65 95 88.3 95 90 C96.65 90 98.3 90 100 90 C100 91.65 100 93.3 100 95 C101.65 95 103.3 95 105 95 C105 96.65 105 98.3 105 100 C106.65 100 108.3 100 110 100 C110 101.65 110 103.3 110 105 C111.65 105 113.3 105 115 105 C115 101.7 115 98.4 115 95 C113.35 95 111.7 95 110 95 C110 93.35 110 91.7 110 90 C108.35 90 106.7 90 105 90 C105 88.35 105 86.7 105 85 C101.7 85 98.4 85 95 85 Z " fill="#ED1C24" transform="translate(70,10)"/>
<path d="M0 0 C31.35 0 62.7 0 95 0 C95 1.65 95 3.3 95 5 C99.95 5 104.9 5 110 5 C110 8.3 110 11.6 110 15 C114.95 15 119.9 15 125 15 C125 13.35 125 11.7 125 10 C129.95 10 134.9 10 140 10 C140 11.65 140 13.3 140 15 C141.65 15 143.3 15 145 15 C145 16.65 145 18.3 145 20 C146.65 20 148.3 20 150 20 C150 26.6 150 33.2 150 40 C148.35 40 146.7 40 145 40 C145 41.65 145 43.3 145 45 C141.7 45 138.4 45 135 45 C135 46.65 135 48.3 135 50 C136.65 50 138.3 50 140 50 C140 51.65 140 53.3 140 55 C141.65 55 143.3 55 145 55 C145 63.25 145 71.5 145 80 C143.35 80 141.7 80 140 80 C140 81.65 140 83.3 140 85 C136.7 85 133.4 85 130 85 C130 93.25 130 101.5 130 110 C126.7 110 123.4 110 120 110 C120 108.35 120 106.7 120 105 C118.35 105 116.7 105 115 105 C115 113.25 115 121.5 115 130 C113.35 130 111.7 130 110 130 C110 131.65 110 133.3 110 135 C108.35 135 106.7 135 105 135 C105 136.65 105 138.3 105 140 C100.05 140 95.1 140 90 140 C90 138.35 90 136.7 90 135 C88.35 135 86.7 135 85 135 C85 133.35 85 131.7 85 130 C83.35 130 81.7 130 80 130 C80 128.35 80 126.7 80 125 C78.35 125 76.7 125 75 125 C75 120.05 75 115.1 75 110 C73.35 110 71.7 110 70 110 C70 103.4 70 96.8 70 90 C53.5 90 37 90 20 90 C20 98.25 20 106.5 20 115 C18.35 115 16.7 115 15 115 C15 118.3 15 121.6 15 125 C13.35 125 11.7 125 10 125 C10 126.65 10 128.3 10 130 C8.35 130 6.7 130 5 130 C5 131.65 5 133.3 5 135 C3.35 135 1.7 135 0 135 C0 136.65 0 138.3 0 140 C-4.95 140 -9.9 140 -15 140 C-15 138.35 -15 136.7 -15 135 C-16.65 135 -18.3 135 -20 135 C-20 133.35 -20 131.7 -20 130 C-21.65 130 -23.3 130 -25 130 C-25 123.4 -25 116.8 -25 110 C-26.65 110 -28.3 110 -30 110 C-30 111.65 -30 113.3 -30 115 C-33.3 115 -36.6 115 -40 115 C-40 105.1 -40 95.2 -40 85 C-38.35 85 -36.7 85 -35 85 C-35 83.35 -35 81.7 -35 80 C-33.35 80 -31.7 80 -30 80 C-30 75.05 -30 70.1 -30 65 C-33.3 65 -36.6 65 -40 65 C-40 69.95 -40 74.9 -40 80 C-41.65 80 -43.3 80 -45 80 C-45 83.3 -45 86.6 -45 90 C-48.3 90 -51.6 90 -55 90 C-55 88.35 -55 86.7 -55 85 C-56.65 85 -58.3 85 -60 85 C-60 75.1 -60 65.2 -60 55 C-58.35 55 -56.7 55 -55 55 C-55 53.35 -55 51.7 -55 50 C-53.35 50 -51.7 50 -50 50 C-50 48.35 -50 46.7 -50 45 C-48.35 45 -46.7 45 -45 45 C-45 43.35 -45 41.7 -45 40 C-40.05 40 -35.1 40 -30 40 C-30 33.4 -30 26.8 -30 20 C-26.7 20 -23.4 20 -20 20 C-20 15.05 -20 10.1 -20 5 C-13.4 5 -6.8 5 0 5 C0 3.35 0 1.7 0 0 Z M5 5 C5 6.65 5 8.3 5 10 C-1.6 10 -8.2 10 -15 10 C-15 14.95 -15 19.9 -15 25 C-18.3 25 -21.6 25 -25 25 C-25 39.85 -25 54.7 -25 70 C-20.05 70 -15.1 70 -10 70 C-10 71.65 -10 73.3 -10 75 C-8.35 75 -6.7 75 -5 75 C-5 76.65 -5 78.3 -5 80 C-3.35 80 -1.7 80 0 80 C0 81.65 0 83.3 0 85 C28.05 85 56.1 85 85 85 C85 83.35 85 81.7 85 80 C89.95 80 94.9 80 100 80 C100 78.35 100 76.7 100 75 C101.65 75 103.3 75 105 75 C105 71.7 105 68.4 105 65 C108.3 65 111.6 65 115 65 C115 50.15 115 35.3 115 20 C111.7 20 108.4 20 105 20 C105 16.7 105 13.4 105 10 C100.05 10 95.1 10 90 10 C90 8.35 90 6.7 90 5 C61.95 5 33.9 5 5 5 Z M120 40 C120 41.65 120 43.3 120 45 C124.95 45 129.9 45 135 45 C135 43.35 135 41.7 135 40 C130.05 40 125.1 40 120 40 Z M120 65 C120 69.95 120 74.9 120 80 C121.65 80 123.3 80 125 80 C125 75.05 125 70.1 125 65 C123.35 65 121.7 65 120 65 Z M125 80 C125 81.65 125 83.3 125 85 C126.65 85 128.3 85 130 85 C130 83.35 130 81.7 130 80 C128.35 80 126.7 80 125 80 Z M-15 85 C-15 86.65 -15 88.3 -15 90 C-16.65 90 -18.3 90 -20 90 C-20 91.65 -20 93.3 -20 95 C-21.65 95 -23.3 95 -25 95 C-25 99.95 -25 104.9 -25 110 C-23.35 110 -21.7 110 -20 110 C-20 106.7 -20 103.4 -20 100 C-18.35 100 -16.7 100 -15 100 C-15 98.35 -15 96.7 -15 95 C-13.35 95 -11.7 95 -10 95 C-10 93.35 -10 91.7 -10 90 C-8.35 90 -6.7 90 -5 90 C-5 88.35 -5 86.7 -5 85 C-8.3 85 -11.6 85 -15 85 Z M95 85 C95 86.65 95 88.3 95 90 C96.65 90 98.3 90 100 90 C100 91.65 100 93.3 100 95 C101.65 95 103.3 95 105 95 C105 96.65 105 98.3 105 100 C106.65 100 108.3 100 110 100 C110 101.65 110 103.3 110 105 C111.65 105 113.3 105 115 105 C115 101.7 115 98.4 115 95 C113.35 95 111.7 95 110 95 C110 93.35 110 91.7 110 90 C108.35 90 106.7 90 105 90 C105 88.35 105 86.7 105 85 C101.7 85 98.4 85 95 85 Z " fill="#000000" transform="translate(70,10)"/>
<path d="M0 0 C33 0 66 0 100 0 C100 1.65 100 3.3 100 5 C101.65 5 103.3 5 105 5 C105 6.65 105 8.3 105 10 C106.65 10 108.3 10 110 10 C110 13.3 110 16.6 110 20 C108.35 20 106.7 20 105 20 C105 21.65 105 23.3 105 25 C100.05 25 95.1 25 90 25 C90 26.65 90 28.3 90 30 C61.95 30 33.9 30 5 30 C5 28.35 5 26.7 5 25 C3.35 25 1.7 25 0 25 C0 23.35 0 21.7 0 20 C-1.65 20 -3.3 20 -5 20 C-5 15.05 -5 10.1 -5 5 C-3.35 5 -1.7 5 0 5 C0 3.35 0 1.7 0 0 Z " fill="#F5E49C" transform="translate(65,65)"/>
<path d="M0 0 C1.65 0 3.3 0 5 0 C5 1.65 5 3.3 5 5 C6.65 5 8.3 5 10 5 C10 3.35 10 1.7 10 0 C14.95 0 19.9 0 25 0 C25 1.65 25 3.3 25 5 C26.65 5 28.3 5 30 5 C30 6.65 30 8.3 30 10 C31.65 10 33.3 10 35 10 C35 11.65 35 13.3 35 15 C36.65 15 38.3 15 40 15 C40 23.25 40 31.5 40 40 C38.35 40 36.7 40 35 40 C35 41.65 35 43.3 35 45 C33.35 45 31.7 45 30 45 C30 46.65 30 48.3 30 50 C25.05 50 20.1 50 15 50 C15 48.35 15 46.7 15 45 C13.35 45 11.7 45 10 45 C10 43.35 10 41.7 10 40 C8.35 40 6.7 40 5 40 C5 38.35 5 36.7 5 35 C3.35 35 1.7 35 0 35 C0 23.45 0 11.9 0 0 Z " fill="#ED1C24" transform="translate(145,100)"/>
<path d="M0 0 C3.3 0 6.6 0 10 0 C10 4.95 10 9.9 10 15 C11.65 15 13.3 15 15 15 C15 10.05 15 5.1 15 0 C18.3 0 21.6 0 25 0 C25 11.55 25 23.1 25 35 C23.35 35 21.7 35 20 35 C20 36.65 20 38.3 20 40 C18.35 40 16.7 40 15 40 C15 41.65 15 43.3 15 45 C13.35 45 11.7 45 10 45 C10 46.65 10 48.3 10 50 C5.05 50 0.1 50 -5 50 C-5 48.35 -5 46.7 -5 45 C-6.65 45 -8.3 45 -10 45 C-10 43.35 -10 41.7 -10 40 C-11.65 40 -13.3 40 -15 40 C-15 33.4 -15 26.8 -15 20 C-13.35 20 -11.7 20 -10 20 C-10 16.7 -10 13.4 -10 10 C-8.35 10 -6.7 10 -5 10 C-5 8.35 -5 6.7 -5 5 C-3.35 5 -1.7 5 0 5 C0 3.35 0 1.7 0 0 Z " fill="#ED1C24" transform="translate(60,100)"/>
<path d="M0 0 C6.6 0 13.2 0 20 0 C20 4.95 20 9.9 20 15 C16.7 15 13.4 15 10 15 C10 21.6 10 28.2 10 35 C8.35 35 6.7 35 5 35 C5 38.3 5 41.6 5 45 C1.7 45 -1.6 45 -5 45 C-5 43.35 -5 41.7 -5 40 C-6.65 40 -8.3 40 -10 40 C-10 30.1 -10 20.2 -10 10 C-8.35 10 -6.7 10 -5 10 C-5 8.35 -5 6.7 -5 5 C-3.35 5 -1.7 5 0 5 C0 3.35 0 1.7 0 0 Z " fill="#ED1C24" transform="translate(20,55)"/>
<path d="M0 0 C4.95 0 9.9 0 15 0 C15 1.65 15 3.3 15 5 C16.65 5 18.3 5 20 5 C20 6.65 20 8.3 20 10 C21.65 10 23.3 10 25 10 C25 16.6 25 23.2 25 30 C23.35 30 21.7 30 20 30 C20 31.65 20 33.3 20 35 C16.7 35 13.4 35 10 35 C10 30.05 10 25.1 10 20 C8.35 20 6.7 20 5 20 C5 21.65 5 23.3 5 25 C1.7 25 -1.6 25 -5 25 C-5 20.05 -5 15.1 -5 10 C-3.35 10 -1.7 10 0 10 C0 6.7 0 3.4 0 0 Z " fill="#ED1C24" transform="translate(195,20)"/>
<path d="M0 0 C6.6 0 13.2 0 20 0 C20 1.65 20 3.3 20 5 C21.65 5 23.3 5 25 5 C25 13.25 25 21.5 25 30 C23.35 30 21.7 30 20 30 C20 31.65 20 33.3 20 35 C16.7 35 13.4 35 10 35 C10 33.35 10 31.7 10 30 C8.35 30 6.7 30 5 30 C5 23.4 5 16.8 5 10 C3.35 10 1.7 10 0 10 C0 6.7 0 3.4 0 0 Z " fill="#ED1C24" transform="translate(190,60)"/>
<path d="M0 0 C3.3 0 6.6 0 10 0 C10 4.95 10 9.9 10 15 C8.35 15 6.7 15 5 15 C5 16.65 5 18.3 5 20 C3.35 20 1.7 20 0 20 C0 24.95 0 29.9 0 35 C-1.65 35 -3.3 35 -5 35 C-5 36.65 -5 38.3 -5 40 C-8.3 40 -11.6 40 -15 40 C-15 30.1 -15 20.2 -15 10 C-13.35 10 -11.7 10 -10 10 C-10 8.35 -10 6.7 -10 5 C-6.7 5 -3.4 5 0 5 C0 3.35 0 1.7 0 0 Z " fill="#ED1C24" transform="translate(45,85)"/>
<path d="M0 0 C1.65 0 3.3 0 5 0 C5 3.3 5 6.6 5 10 C8.3 10 11.6 10 15 10 C15 11.65 15 13.3 15 15 C16.65 15 18.3 15 20 15 C20 23.25 20 31.5 20 40 C16.7 40 13.4 40 10 40 C10 38.35 10 36.7 10 35 C8.35 35 6.7 35 5 35 C5 31.7 5 28.4 5 25 C3.35 25 1.7 25 0 25 C0 16.75 0 8.5 0 0 Z " fill="#ED1C24" transform="translate(180,80)"/>
<path d="M0 0 C3.3 0 6.6 0 10 0 C10 11.55 10 23.1 10 35 C5.05 35 0.1 35 -5 35 C-5 33.35 -5 31.7 -5 30 C-6.65 30 -8.3 30 -10 30 C-10 28.35 -10 26.7 -10 25 C-8.35 25 -6.7 25 -5 25 C-5 21.7 -5 18.4 -5 15 C-3.35 15 -1.7 15 0 15 C0 10.05 0 5.1 0 0 Z " fill="#FFA3B1" transform="translate(75,100)"/>
<path d="M0 0 C1.65 0 3.3 0 5 0 C5 1.65 5 3.3 5 5 C6.65 5 8.3 5 10 5 C10 11.6 10 18.2 10 25 C13.3 25 16.6 25 20 25 C20 28.3 20 31.6 20 35 C13.4 35 6.8 35 0 35 C0 23.45 0 11.9 0 0 Z " fill="#FFA3B1" transform="translate(145,100)"/>
<path d="M0 0 C3.3 0 6.6 0 10 0 C10 3.3 10 6.6 10 10 C11.65 10 13.3 10 15 10 C15 13.3 15 16.6 15 20 C10.05 20 5.1 20 0 20 C0 13.4 0 6.8 0 0 Z " fill="#000000" transform="translate(135,30)"/>
<path d="M0 0 C3.3 0 6.6 0 10 0 C10 6.6 10 13.2 10 20 C5.05 20 0.1 20 -5 20 C-5 16.7 -5 13.4 -5 10 C-3.35 10 -1.7 10 0 10 C0 6.7 0 3.4 0 0 Z " fill="#000000" transform="translate(80,30)"/>
<path d="M0 0 C1.65 0 3.3 0 5 0 C5 8.25 5 16.5 5 25 C3.35 25 1.7 25 0 25 C0 26.65 0 28.3 0 30 C-3.3 30 -6.6 30 -10 30 C-10 28.35 -10 26.7 -10 25 C-8.35 25 -6.7 25 -5 25 C-5 23.35 -5 21.7 -5 20 C-3.35 20 -1.7 20 0 20 C0 13.4 0 6.8 0 0 Z " fill="#000000" transform="translate(210,65)"/>
<path d="M0 0 C1.65 0 3.3 0 5 0 C5 8.25 5 16.5 5 25 C6.65 25 8.3 25 10 25 C10 26.65 10 28.3 10 30 C6.7 30 3.4 30 0 30 C0 20.1 0 10.2 0 0 Z " fill="#000000" transform="translate(30,95)"/>
<path d="M0 0 C1.65 0 3.3 0 5 0 C5 4.95 5 9.9 5 15 C6.65 15 8.3 15 10 15 C10 18.3 10 21.6 10 25 C8.35 25 6.7 25 5 25 C5 23.35 5 21.7 5 20 C3.35 20 1.7 20 0 20 C0 13.4 0 6.8 0 0 Z " fill="#000000" transform="translate(45,120)"/>
<path d="M0 0 C1.65 0 3.3 0 5 0 C5 8.25 5 16.5 5 25 C1.7 25 -1.6 25 -5 25 C-5 23.35 -5 21.7 -5 20 C-3.35 20 -1.7 20 0 20 C0 13.4 0 6.8 0 0 Z " fill="#000000" transform="translate(195,95)"/>
<path d="M0 0 C1.65 0 3.3 0 5 0 C5 9.9 5 19.8 5 30 C3.35 30 1.7 30 0 30 C0 20.1 0 10.2 0 0 Z " fill="#000000" transform="translate(10,65)"/>
<path d="M0 0 C1.65 0 3.3 0 5 0 C5 8.25 5 16.5 5 25 C3.35 25 1.7 25 0 25 C0 16.75 0 8.5 0 0 Z " fill="#000000" transform="translate(180,115)"/>
<path d="M0 0 C1.65 0 3.3 0 5 0 C5 4.95 5 9.9 5 15 C6.65 15 8.3 15 10 15 C10 16.65 10 18.3 10 20 C6.7 20 3.4 20 0 20 C0 13.4 0 6.8 0 0 Z " fill="#000000" transform="translate(155,105)"/>
<path d="M0 0 C4.95 0 9.9 0 15 0 C15 1.65 15 3.3 15 5 C13.35 5 11.7 5 10 5 C10 6.65 10 8.3 10 10 C8.35 10 6.7 10 5 10 C5 8.35 5 6.7 5 5 C3.35 5 1.7 5 0 5 C0 3.35 0 1.7 0 0 Z " fill="#000000" transform="translate(150,135)"/>
<path d="M0 0 C1.65 0 3.3 0 5 0 C5 6.6 5 13.2 5 20 C3.35 20 1.7 20 0 20 C0 13.4 0 6.8 0 0 Z " fill="#000000" transform="translate(215,30)"/>
<path d="M0 0 C4.95 0 9.9 0 15 0 C15 1.65 15 3.3 15 5 C10.05 5 5.1 5 0 5 C0 3.35 0 1.7 0 0 Z " fill="#000000" transform="translate(160,145)"/>
<path d="M0 0 C4.95 0 9.9 0 15 0 C15 1.65 15 3.3 15 5 C10.05 5 5.1 5 0 5 C0 3.35 0 1.7 0 0 Z " fill="#000000" transform="translate(55,145)"/>
<path d="M0 0 C3.3 0 6.6 0 10 0 C10 1.65 10 3.3 10 5 C8.35 5 6.7 5 5 5 C5 6.65 5 8.3 5 10 C3.35 10 1.7 10 0 10 C0 6.7 0 3.4 0 0 Z " fill="#000000" transform="translate(70,135)"/>
<path d="M0 0 C1.65 0 3.3 0 5 0 C5 1.65 5 3.3 5 5 C6.65 5 8.3 5 10 5 C10 6.65 10 8.3 10 10 C6.7 10 3.4 10 0 10 C0 6.7 0 3.4 0 0 Z " fill="#000000" transform="translate(60,125)"/>
<path d="M0 0 C1.65 0 3.3 0 5 0 C5 4.95 5 9.9 5 15 C3.35 15 1.7 15 0 15 C0 10.05 0 5.1 0 0 Z " fill="#000000" transform="translate(145,120)"/>
<path d="M0 0 C1.65 0 3.3 0 5 0 C5 4.95 5 9.9 5 15 C3.35 15 1.7 15 0 15 C0 10.05 0 5.1 0 0 Z " fill="#000000" transform="translate(40,105)"/>
<path d="M0 0 C1.65 0 3.3 0 5 0 C5 3.3 5 6.6 5 10 C1.7 10 -1.6 10 -5 10 C-5 8.35 -5 6.7 -5 5 C-3.35 5 -1.7 5 0 5 C0 3.35 0 1.7 0 0 Z " fill="#000000" transform="translate(20,90)"/>
<path d="M0 0 C1.65 0 3.3 0 5 0 C5 4.95 5 9.9 5 15 C3.35 15 1.7 15 0 15 C0 10.05 0 5.1 0 0 Z " fill="#000000" transform="translate(195,75)"/>
<path d="M0 0 C1.65 0 3.3 0 5 0 C5 4.95 5 9.9 5 15 C3.35 15 1.7 15 0 15 C0 10.05 0 5.1 0 0 Z " fill="#000000" transform="translate(25,75)"/>
<path d="M0 0 C4.95 0 9.9 0 15 0 C15 1.65 15 3.3 15 5 C10.05 5 5.1 5 0 5 C0 3.35 0 1.7 0 0 Z " fill="#000000" transform="translate(195,20)"/>
<path d="M0 0 C1.65 0 3.3 0 5 0 C5 3.3 5 6.6 5 10 C3.35 10 1.7 10 0 10 C0 6.7 0 3.4 0 0 Z " fill="#000000" transform="translate(165,125)"/>
<path d="M0 0 C1.65 0 3.3 0 5 0 C5 3.3 5 6.6 5 10 C3.35 10 1.7 10 0 10 C0 6.7 0 3.4 0 0 Z " fill="#000000" transform="translate(80,125)"/>
<path d="M0 0 C1.65 0 3.3 0 5 0 C5 3.3 5 6.6 5 10 C3.35 10 1.7 10 0 10 C0 6.7 0 3.4 0 0 Z " fill="#000000" transform="translate(65,115)"/>
<path d="M0 0 C1.65 0 3.3 0 5 0 C5 3.3 5 6.6 5 10 C3.35 10 1.7 10 0 10 C0 6.7 0 3.4 0 0 Z " fill="#000000" transform="translate(50,110)"/>
<path d="M0 0 C1.65 0 3.3 0 5 0 C5 3.3 5 6.6 5 10 C3.35 10 1.7 10 0 10 C0 6.7 0 3.4 0 0 Z " fill="#000000" transform="translate(185,105)"/>
<path d="M0 0 C3.3 0 6.6 0 10 0 C10 1.65 10 3.3 10 5 C6.7 5 3.4 5 0 5 C0 3.35 0 1.7 0 0 Z " fill="#000000" transform="translate(205,50)"/>
<path d="M0 0 C1.65 0 3.3 0 5 0 C5 1.65 5 3.3 5 5 C3.35 5 1.7 5 0 5 C0 3.35 0 1.7 0 0 Z " fill="#000000" transform="translate(175,140)"/>
<path d="M0 0 C1.65 0 3.3 0 5 0 C5 1.65 5 3.3 5 5 C3.35 5 1.7 5 0 5 C0 3.35 0 1.7 0 0 Z " fill="#000000" transform="translate(175,110)"/>
<path d="M0 0 C1.65 0 3.3 0 5 0 C5 1.65 5 3.3 5 5 C3.35 5 1.7 5 0 5 C0 3.35 0 1.7 0 0 Z " fill="#000000" transform="translate(170,105)"/>
<path d="M0 0 C1.65 0 3.3 0 5 0 C5 1.65 5 3.3 5 5 C3.35 5 1.7 5 0 5 C0 3.35 0 1.7 0 0 Z " fill="#000000" transform="translate(55,105)"/>
<path d="M0 0 C1.65 0 3.3 0 5 0 C5 1.65 5 3.3 5 5 C3.35 5 1.7 5 0 5 C0 3.35 0 1.7 0 0 Z " fill="#000000" transform="translate(180,100)"/>
<path d="M0 0 C1.65 0 3.3 0 5 0 C5 1.65 5 3.3 5 5 C3.35 5 1.7 5 0 5 C0 3.35 0 1.7 0 0 Z " fill="#000000" transform="translate(165,100)"/>
<path d="M0 0 C1.65 0 3.3 0 5 0 C5 1.65 5 3.3 5 5 C3.35 5 1.7 5 0 5 C0 3.35 0 1.7 0 0 Z " fill="#000000" transform="translate(60,100)"/>
<path d="M0 0 C1.65 0 3.3 0 5 0 C5 1.65 5 3.3 5 5 C3.35 5 1.7 5 0 5 C0 3.35 0 1.7 0 0 Z " fill="#000000" transform="translate(45,100)"/>
<path d="M0 0 C1.65 0 3.3 0 5 0 C5 1.65 5 3.3 5 5 C3.35 5 1.7 5 0 5 C0 3.35 0 1.7 0 0 Z " fill="#000000" transform="translate(50,95)"/>
<path d="M0 0 C1.65 0 3.3 0 5 0 C5 1.65 5 3.3 5 5 C3.35 5 1.7 5 0 5 C0 3.35 0 1.7 0 0 Z " fill="#000000" transform="translate(190,90)"/>
<path d="M0 0 C1.65 0 3.3 0 5 0 C5 1.65 5 3.3 5 5 C3.35 5 1.7 5 0 5 C0 3.35 0 1.7 0 0 Z " fill="#000000" transform="translate(35,90)"/>
<path d="M0 0 C1.65 0 3.3 0 5 0 C5 1.65 5 3.3 5 5 C3.35 5 1.7 5 0 5 C0 3.35 0 1.7 0 0 Z " fill="#000000" transform="translate(205,60)"/>
<path d="M0 0 C1.65 0 3.3 0 5 0 C5 1.65 5 3.3 5 5 C3.35 5 1.7 5 0 5 C0 3.35 0 1.7 0 0 Z " fill="#000000" transform="translate(15,60)"/>
<path d="M0 0 C1.65 0 3.3 0 5 0 C5 1.65 5 3.3 5 5 C3.35 5 1.7 5 0 5 C0 3.35 0 1.7 0 0 Z " fill="#000000" transform="translate(20,55)"/>
<path d="M0 0 C1.65 0 3.3 0 5 0 C5 1.65 5 3.3 5 5 C3.35 5 1.7 5 0 5 C0 3.35 0 1.7 0 0 Z " fill="#000000" transform="translate(210,25)"/>
</svg>
